<svg version="1" xmlns="http://www.w3.org/2000/svg" width="768" height="768" viewBox="0 0 576.000000 576.000000"><path d="M233.3 73.5L161 145.7l.1 69.6v69.6l-72 72.1C49.4 396.6 17 429.5 17 430.1 17 431.4 159.6 574 160.9 574c.5 0 33.6-32.6 73.5-72.5 63.2-63.3 72.4-72.8 72-75-.2-1.4-.3-2.5 0-2.5.2 0 11.3 10.9 24.6 24.3l24.3 24.2h101.8c56.1.1 101.9-.2 101.9-.5s-36.9-37.4-82-82.4c-45.1-45.1-82-82.2-82-82.6 0-.4 36.3-.6 80.8-.6 44.4.1 81.5 0 82.4-.2 2.1-.5 2.6-2.6 1.7-7.5-.3-2-.4-3.7 0-3.7.3 0 .5-2.4.4-5.2-.1-2.9-.3-6.4-.3-7.8 0-1.4-.1-3.9-.1-5.5-.2-3.6-.1-6 0-9.8.2-6.2.3-8.3.2-9.7-.1-.8-.1-2.6 0-4v-4c-.2-1.8 0-5.8.3-8.5.1-1.1-.1-3.7-.5-5.8-.3-2-.4-3.7 0-3.7.3 0 .5-2.4.4-5.2-.1-2.9-.3-6.4-.3-7.8 0-1.4-.1-3.9-.1-5.5-.2-3.6-.1-6 0-9.8.2-6.2.3-8.3.2-9.7-.1-.8-.1-2.6 0-4v-4c-.2-1.8 0-5.8.3-8.5.1-1.1-.1-3.7-.5-5.8-.3-2-.4-3.7 0-3.7.3 0 .5-2.4.4-5.2-.1-2.9-.3-6.4-.3-7.8 0-1.4-.1-3.9-.1-5.5-.2-3.7-.1-6.3 0-9.5.1-1.4.1-3.2.1-4-.1-.8-.1-2.9-.1-4.5.1-1.7.1-3.9.1-5s0-3.4-.1-5c0-1.7 0-3.7.1-4.5.2-4.7-.1-11.4-.6-11.9-.3-.3-46.4-.6-102.4-.7H355.1l-23.8 23.8c-13.1 13.1-24 23.8-24.3 23.8-.3 0-.5-33.6-.5-74.6 0-41-.2-74.7-.5-74.9-.3-.2-33 32.2-72.7 72z"/></svg>